<?xml version="1.0" encoding="UTF-8"?>
<!DOCTYPE svg  PUBLIC '-//W3C//DTD SVG 1.0//EN'  'http://www.w3.org/TR/2001/PR-SVG-20010719/DTD/svg10.dtd'>
<svg viewBox="0 0 400 450" xmlns="http://www.w3.org/2000/svg">
<defs>
<radialGradient id="a" fr="25%" spreadMethod="reflect">
<stop stop-color="#868686" offset="0"/>
<stop stop-color="#462626" stop-opacity=".8" offset=".5"/>
<stop stop-color="#000026" stop-opacity=".4" offset="1"/>
</radialGradient>
</defs>
<rect width="400" height="450" fill="url(#b)"/>
<g stroke-width="0">
<path d="m398.67 269.33-0.667-76.333c-1-46 0.165-67.667 0-69.667s-2.573-4.811-3.322-6.409c-0.842-1.798-3.013-5.266-3.708-5.924-1.173-1.112-4.452-9.523-4.178-10.718 0.161-0.7052-0.176-1.282-0.75-1.282s-1.044-1.7734-1.044-3.941c0-2.1675-0.45-4.2191-1-4.559s-1.003-1.379-1.006-2.309c-3e-3 -0.9301-0.679-2.9799-1.5-4.5553-0.822-1.5754-1.494-3.7129-1.494-4.75s-0.414-1.8857-0.921-1.8857c-0.506 0-1.203-1.2868-1.548-2.8595-0.346-1.5727-1.956-4.1319-3.58-5.687-1.623-1.5552-2.951-3.2235-2.951-3.7073s-1.178-2.4246-2.619-4.3129c-1.44-1.8883-2.262-3.4333-1.825-3.4333 0.436 0-0.083-1.0125-1.153-2.25-1.071-1.2375-3.264-4.95-4.874-8.25-3.202-6.5612-7.16-11.5-9.216-11.5-0.722 0-1.313-0.675-1.313-1.5 0-1.1082-1.16-1.5-4.441-1.5-2.443 0-4.707 0.4303-5.032 0.9563s-1.206 0.7203-1.958 0.4319c-0.752-0.2885-1.664-0.0439-2.027 0.5436s-1.464 1.0682-2.446 1.0682-2.591 0.8894-3.575 1.9764c-0.983 1.087-2.115 1.7744-2.515 1.5274-0.831-0.5136-10.006 8.885-10.006 10.25 0 0.4938-1.125 1.9548-2.5 3.2465s-2.5 3.2331-2.5 4.3141-0.788 2.5412-1.75 3.245-1.811 1.6535-1.885 2.1103c-0.409 2.5303-1.713 5.3306-2.482 5.3306-0.485 0-0.883 0.9184-0.883 2.041 0 1.1225-1.388 4.707-3.083 7.9656-1.696 3.2585-3.169 6.5079-3.274 7.2208-0.105 0.713-1.08 2.5566-2.167 4.0969-4.827 6.8408-6.744 8.6757-9.065 8.6757-1.326 0-2.411 0.45-2.411 1s-1.725 1-3.833 1c-2.109 0-4.171 0.3375-4.584 0.75-0.412 0.412-1.05 0.789-1.416 0.836-1.131 0.147-4.639 1.736-5.167 2.341-0.708 0.812-4.141 2.915-6.5 3.983-1.1 0.498-4.006 2.972-6.458 5.498s-5.04 4.592-5.75 4.592c-0.711 0-1.292 0.41-1.292 0.911s-1.912 1.865-4.25 3.032-6.05 3.209-8.25 4.537c-7.148 4.318-9.768 5.52-12.031 5.52-1.223 0-2.784 0.675-3.469 1.5s-1.865 1.5-2.622 1.5c-0.758 0-1.378 0.398-1.378 0.883 0 0.486-0.788 1.172-1.75 1.524-0.963 0.352-3.775 1.75-6.25 3.106-2.475 1.357-4.993 2.471-5.596 2.477-1.828 0.017-7.404 3.093-7.404 4.083 0 0.51-0.906 0.927-2.014 0.927-1.919 0-5.922 1.792-6.986 3.128-0.275 0.345-2.41 0.946-4.745 1.337-2.334 0.39-4.498 1.12-4.809 1.622-0.31 0.502-3.436 0.913-6.946 0.913s-6.66 0.45-7 1-1.491 1-2.559 1-1.941-0.45-1.941-1-1.098-1-2.441-1-2.683-0.392-2.979-0.87c-0.296-0.479-4.164-1.08-8.596-1.337-4.431-0.257-8.581-0.99-9.221-1.63s-2.198-1.163-3.463-1.163-2.3-0.445-2.3-0.988c0-0.544-1.8-1.276-4-1.628s-4-1.032-4-1.512-1.773-0.872-3.941-0.872-4.2-0.419-4.516-0.93c-0.316-0.512-3.042-1.238-6.059-1.615-3.016-0.377-5.484-1.084-5.484-1.57 0-0.487-7.2-0.885-16-0.885s-16 0.398-16 0.883c0 0.922-3.7246 2.413-5.5577 2.226-0.5817-0.06-1.8831 1.763-2.892 4.049-1.4638 3.318-1.5967 4.538-0.6584 6.041 0.6467 1.035 0.9283 2.283 0.6257 2.773-0.3026 0.489-0.0929 1.172 0.4661 1.518 0.559 0.345 1.0163 1.501 1.0163 2.569s0.45 1.941 1 1.941 1 0.597 1 1.326 1.125 2.382 2.5 3.674 2.5 2.945 2.5 3.674 0.45 1.326 1 1.326 1 0.494 1 1.099c0 1.503 3.1951 8.262 4.2507 8.993 0.4702 0.325 0.7573 1 0.638 1.5-0.4312 1.806 1.3766 6.483 2.9756 7.697 1.7406 1.321 3.5712 3.942 5.0374 7.211 0.4934 1.1 2.2923 3.322 3.9977 4.937 1.7053 1.615 3.1154 3.415 3.1335 4s1.8181 2.851 4 5.036c2.7161 2.721 3.9671 4.849 3.9671 6.75 0 1.527 0.45 2.777 1 2.777s1 0.793 1 1.763c0 0.969 1.084 2.577 2.41 3.572 2.33 1.75 4.134 5.844 3.709 8.415-0.114 0.688 0.179 1.25 0.651 1.25 0.471 0 1.475 1.575 2.23 3.5s1.873 3.5 2.484 3.5c1.413 0 8.03 6.93 8.847 9.265 0.34 0.971 1.754 2.197 3.143 2.725 2.37 0.901 3.167 3.239 2.618 7.685-0.08 0.646 0.317 1.46 0.881 1.809 0.565 0.349 1.027 3.532 1.027 7.075s0.398 6.441 0.883 6.441c1.003 0 2.286 3.44 2.484 6.664 0.073 1.19 0.47 2.502 0.883 2.916 0.412 0.414 0.75 1.766 0.75 3.003 0 1.238 0.562 2.513 1.25 2.834 1 0.466 1 0.7 0 1.166-1.51 0.705-1.726 11.005-0.25 11.917 0.55 0.34 1 2.336 1 4.437 0 2.174 0.646 4.354 1.5 5.063 0.825 0.685 1.51 2.427 1.522 3.872 0.012 1.446 0.902 3.753 1.978 5.128s1.966 2.984 1.978 3.576c0.012 0.591 1.127 2.114 2.478 3.382 1.35 1.269 2.422 2.585 2.381 2.925-0.242 2.014 0.347 3.117 1.663 3.117 0.825 0 1.5 0.45 1.5 1s0.579 1 1.288 1c1.745 0 10.343 8.977 11.133 11.624 0.891 2.987 10.727 12.744 14.792 14.673 1.866 0.885 4.226 2.531 5.245 3.656 1.018 1.126 2.656 2.047 3.638 2.047s2.043 0.415 2.356 0.923c0.314 0.508 1.916 1.218 3.559 1.58 1.644 0.361 2.989 1.07 2.989 1.576 0 0.507 1.098 0.921 2.441 0.921s2.707 0.43 3.032 0.956 1.297 0.686 2.16 0.355c0.863-0.332 1.861-0.176 2.218 0.345 0.357 0.522 2.355 1.742 4.44 2.712 2.084 0.971 5.282 3.074 7.106 4.675 1.823 1.601 3.517 2.709 3.764 2.463 0.247-0.247 3.562 2.688 7.367 6.522 3.805 3.835 7.493 6.972 8.195 6.972s1.277 0.398 1.277 0.883c0 0.486 0.787 1.172 1.75 1.524 0.962 0.352 3.775 1.75 6.25 3.106 2.475 1.357 5.062 2.471 5.75 2.477 0.687 6e-3 1.25 0.354 1.25 0.774s1.687 1.547 3.75 2.505c4.466 2.072 7.524 3.924 8.356 5.057 0.333 0.454 2.482 1.077 4.774 1.385 2.293 0.307 4.409 0.948 4.703 1.424 0.781 1.263 5.825 1.057 7.175-0.293 0.775-0.775 1.584-0.832 2.45-0.173 0.71 0.542 3.981 1.074 7.267 1.183s6.413 0.636 6.95 1.173c1.315 1.315 6.91 1.24 8.262-0.112 0.783-0.783 1.275-0.783 1.759 0 0.37 0.598 2.452 1.087 4.627 1.087 3.806 0 4.671-0.256 9.718-2.878 1.26-0.654 2.691-0.942 3.181-0.64 0.489 0.303 1.172 0.093 1.518-0.466 0.345-0.559 2.181-1.016 4.079-1.016 2.268 0 5.076-1.123 8.191-3.276 3.918-2.707 5.13-3.1 6.99-2.263 1.238 0.557 2.25 1.357 2.25 1.776 0 0.81 1.174 2.019 7.78 8.013 2.273 2.063 4.612 3.75 5.198 3.75s1.535 1.032 2.11 2.293c0.574 1.261 2.702 3.063 4.728 4.004 5.031 2.338 7.283 3.809 9.879 6.453 1.215 1.238 2.59 2.25 3.054 2.25 0.465 0 2.603 1.8 4.751 4s4.411 4 5.029 4c0.617 0 2.101 1.042 3.297 2.314 1.987 2.115 0.843-63.449 0.843-52.314v12.186"/>
<path d="m221 331c0-0.55-1.323-1-2.941-1s-3.188-0.4-3.491-0.889c-0.302-0.489-1.791-1.195-3.309-1.568-3.396-0.834-10.259-7.316-10.259-9.689 0-0.957-0.835-3.228-1.855-5.047-1.905-3.395-2.146-7.437-0.701-11.76 1.62-4.847 6.938-8.047 13.374-8.047h4.888l-0.472 4.912c-0.381 3.972 0.078 6.065 2.397 10.932 2.904 6.092 5.565 8.069 8.067 5.992 1.52-1.262 1.774-7.836 0.302-7.836-0.55 0-1-1.055-1-2.345s-0.903-3.163-2.007-4.162c-1.105-0.999-2.645-3.094-3.424-4.655l-1.416-2.838h5.937c5.571 0 9.498 1.228 11.106 3.471 0.382 0.534 0.957 0.71 1.276 0.39 1.109-1.109 8.528 6.644 8.528 8.911 0 1.225 0.45 2.228 1 2.228s1 1.125 1 2.5-0.45 2.5-1 2.5-1 0.831-1 1.846c0 3.708-5.981 12.154-8.606 12.154-0.658 0-6.932 2.661-9.63 4.084-2.32 1.224-6.764 1.168-6.764-0.084" fill="url(#a)"/>
<path d="m336.62 289.2c-0.408-0.661-2.039-1.201-3.624-1.201s-3.165-0.457-3.51-1.016c-0.346-0.559-0.974-0.803-1.397-0.542-0.866 0.536-6.938-5.765-8.844-9.178-1.465-2.624-1.646-6.901-0.326-7.716 0.508-0.314 1.218-1.916 1.58-3.559 0.361-1.644 1.07-2.989 1.576-2.989 0.507 0 0.921-0.597 0.921-1.326 0-1.415 3.125-4.41 6.646-6.368 1.799-1 2.43-0.879 3.905 0.75 1.015 1.121 1.27 1.944 0.604 1.944-0.635 0-1.155 1.125-1.155 2.5s0.45 2.5 1 2.5 1 0.584 1 1.297c0 1.553 7.123 8.703 8.671 8.703 0.597 0 1.523-1.724 2.058-3.832 0.798-3.144 0.607-4.623-1.069-8.25-1.123-2.43-3.122-5.448-4.443-6.706-2.681-2.554-2.342-5.105 0.788-5.924 1.097-0.287 1.995-0.919 1.995-1.405 0-1.504 9.515-0.972 12.911 0.723 2.801 1.397 5.054 4.6 5.552 7.894 0.083 0.55 0.517 1.804 0.965 2.786 0.716 1.573 0.355 9.327-0.643 13.795-0.657 2.944-9.132 12.971-12.469 14.753-1.202 0.641-4.202 1.166-6.667 1.166-2.599 0-4.651 0.505-4.883 1.201-0.311 0.934-0.564 0.934-1.142 0" fill="url(#a)"/>
</g>
</svg>
